# xmcd
#
# Track frame offsets: 
#        150
#        17382
#        35101
#        53625
#        68483
#        86292
#        108996
#        127142
#        147213
#        168299
#        187381
#        206355
#        225064
#        248690
#        268054
#        291235
#        309025
#
# Disc length: 4375 seconds
#
# Revision: 0
# Processed by: cddbd v1.5.2PL0 Copyright (c) Steve Scherf et al.
# Submitted via: ExactAudioCopy v0.99pb4
#
DISCID=df111511
DTITLE=Jay-Z - THE Jigga Duets Jay-Z AND R&B
DYEAR=2007
DGENRE=Hip-Hop
TTITLE0=Best Of Me featuring Jay-Z
TTITLE1=I Don't Wanna Be Alone
TTITLE2=Things We Do For Love
TTITLE3=Rock My World
TTITLE4=Frontin feat. Pharrell
TTITLE5=Shake It Off
TTITLE6=Fiesta
TTITLE7=Call Me
TTITLE8=Always Keep It Real
TTITLE9=Turn Off The Lights
TTITLE10=Crazy In Love
TTITLE11=Love For Free
TTITLE12=One Minute Man
TTITLE13=Alone In This World
TTITLE14=So Many Ways
TTITLE15=Be Alone No More
TTITLE16=Umbrella
EXTD=
EXTT0=
EXTT1=
EXTT2=
EXTT3=
EXTT4=
EXTT5=
EXTT6=
EXTT7=
EXTT8=
EXTT9=
EXTT10=
EXTT11=
EXTT12=
EXTT13=
EXTT14=
EXTT15=
EXTT16=
PLAYORDER=
